<svg width="102" height="22" viewBox="0 0 102 22" fill="none" xmlns="http://www.w3.org/2000/svg">
<g clip-path="url(#clip0_233_18)">
<path d="M17.7928 6.78062H12.4909C12.3711 5.06326 11.2129 4.20458 9.01622 4.20458C8.13757 4.20458 7.44862 4.37236 6.94938 4.70794C6.45014 5.02378 6.20053 5.45805 6.20053 6.01077C6.20053 6.44504 6.31036 6.78062 6.53002 7.0175C6.76966 7.25437 7.199 7.45177 7.81805 7.60969C11.5324 8.57694 14.0386 9.35666 15.3366 9.94886C17.5532 10.9753 18.6615 12.6828 18.6615 15.0713C18.6615 17.1835 17.8328 18.8712 16.1753 20.1346C14.5378 21.3782 12.3212 22 9.52545 22C6.56996 22 4.2535 21.3387 2.57606 20.0162C0.898627 18.6936 0.039939 16.838 0 14.4495H5.60144C5.60144 16.6801 7.02926 17.7954 9.8849 17.7954C12.0017 17.7954 13.06 17.0848 13.06 15.6635C13.06 15.0911 12.8504 14.6469 12.431 14.3311C12.0316 13.9955 11.3027 13.6895 10.2443 13.4132C8.22743 12.8605 6.47011 12.3078 4.9724 11.755C2.19664 10.7681 0.808764 9.02109 0.808764 6.51413C0.808764 4.52041 1.57759 2.94123 3.11524 1.77658C4.67286 0.592194 6.76966 0 9.40563 0C12.0616 0 14.1084 0.582324 15.5462 1.74697C17.004 2.91162 17.7529 4.5895 17.7928 6.78062Z" fill="white"/>
<path d="M19.2004 21.5264V0.444336H24.7719L32.4702 13.7687L32.2305 0.444336H37.6223V21.5264H32.2006L24.4125 7.99481L24.5622 21.5264H19.2004Z" fill="white"/>
<path d="M48.8613 21.5264H43.2L37.3889 0.444336H42.9903L46.0456 15.8414L49.2208 0.444336H54.5227L57.5181 15.8414L60.6933 0.444336H66.2947L60.3638 21.5264H54.7923L51.7969 6.95847L48.8613 21.5264Z" fill="white"/>
<path d="M66.022 21.5264V0.444336H77.1351C79.2518 0.444336 80.9792 0.96744 82.3171 2.01365C83.6751 3.04012 84.354 4.55021 84.354 6.54393C84.354 8.99167 83.2557 10.709 81.0591 11.696C82.4769 12.1698 83.3755 13.0778 83.7549 14.4201C84.0145 15.2887 84.2342 16.779 84.4139 18.8912C84.4139 18.9504 84.4239 19.0886 84.4439 19.3057C84.4639 19.5031 84.4738 19.6413 84.4738 19.7203C84.4938 19.7992 84.5138 19.9275 84.5337 20.1052C84.5537 20.2631 84.5737 20.3914 84.5937 20.4901C84.6336 20.5691 84.6735 20.6776 84.7135 20.8158C84.7534 20.954 84.8033 21.0823 84.8632 21.2007C84.9431 21.2994 85.023 21.408 85.1029 21.5264H79.4415C79.2818 21.1514 79.162 20.727 79.0821 20.2532C79.0022 19.7597 78.9423 19.1675 78.9023 18.4766C78.8624 17.7858 78.8325 17.3317 78.8125 17.1146C78.6727 15.8513 78.3232 14.963 77.7641 14.4497C77.2049 13.9365 76.2864 13.6799 75.0083 13.6799H71.5935V21.5264H66.022ZM71.5935 9.77139H75.5175C76.5759 9.77139 77.3947 9.59373 77.9738 9.23841C78.5729 8.8831 78.8724 8.1922 78.8724 7.16574C78.8724 5.52733 77.7341 4.70813 75.4576 4.70813H71.5935V9.77139Z" fill="white"/>
<path d="M102 0.444336V5.12267H95.6796V21.5264H90.0482V5.12267H83.7278V0.444336H102Z" fill="white"/>
</g>
<defs>
<clipPath id="clip0_233_18">
<rect width="102" height="22" fill="white"/>
</clipPath>
</defs>
</svg>
