<svg width="102" height="22" viewBox="0 0 102 22" fill="none" xmlns="http://www.w3.org/2000/svg">
<path d="M17.7928 6.78062H12.4909C12.3711 5.06326 11.2129 4.20458 9.01622 4.20458C8.13757 4.20458 7.44862 4.37236 6.94938 4.70794C6.45014 5.02378 6.20053 5.45805 6.20053 6.01077C6.20053 6.44504 6.31036 6.78062 6.53002 7.0175C6.76966 7.25437 7.199 7.45177 7.81805 7.60969C11.5324 8.57694 14.0386 9.35666 15.3366 9.94886C17.5532 10.9753 18.6615 12.6828 18.6615 15.0713C18.6615 17.1835 17.8328 18.8712 16.1753 20.1346C14.5378 21.3782 12.3212 22 9.52545 22C6.56996 22 4.2535 21.3387 2.57606 20.0162C0.898627 18.6936 0.039939 16.838 0 14.4495H5.60144C5.60144 16.6801 7.02926 17.7954 9.8849 17.7954C12.0017 17.7954 13.06 17.0848 13.06 15.6635C13.06 15.0911 12.8504 14.6469 12.431 14.3311C12.0316 13.9955 11.3027 13.6895 10.2443 13.4132C8.22743 12.8605 6.47011 12.3078 4.9724 11.755C2.19664 10.7681 0.808764 9.02109 0.808764 6.51413C0.808764 4.52041 1.57759 2.94123 3.11524 1.77658C4.67286 0.592194 6.76966 0 9.40563 0C12.0616 0 14.1084 0.582324 15.5462 1.74697C17.004 2.91162 17.7529 4.5895 17.7928 6.78062Z" fill="url(#paint0_linear_219_10)"/>
<path d="M19.2004 21.5262V0.444147H24.7719L32.4702 13.7685L32.2305 0.444147H37.6223V21.5262H32.2006L24.4125 7.99462L24.5622 21.5262H19.2004Z" fill="url(#paint1_linear_219_10)"/>
<path d="M48.8614 21.5262H43.2001L37.389 0.444147H42.9904L46.0457 15.8412L49.2209 0.444147H54.5228L57.5182 15.8412L60.6934 0.444147H66.2948L60.3639 21.5262H54.7924L51.797 6.95828L48.8614 21.5262Z" fill="url(#paint2_linear_219_10)"/>
<path d="M66.0219 21.5262V0.444147H77.135C79.2517 0.444147 80.9791 0.967251 82.317 2.01346C83.675 3.03993 84.3539 4.55002 84.3539 6.54374C84.3539 8.99148 83.2556 10.7088 81.059 11.6958C82.4768 12.1696 83.3754 13.0776 83.7548 14.4199C84.0144 15.2885 84.2341 16.7788 84.4138 18.891C84.4138 18.9502 84.4238 19.0884 84.4438 19.3055C84.4638 19.5029 84.4737 19.6411 84.4737 19.7201C84.4937 19.799 84.5137 19.9273 84.5336 20.105C84.5536 20.2629 84.5736 20.3912 84.5936 20.4899C84.6335 20.5689 84.6734 20.6774 84.7134 20.8156C84.7533 20.9538 84.8032 21.0821 84.8631 21.2005C84.943 21.2992 85.0229 21.4078 85.1028 21.5262H79.4414C79.2817 21.1512 79.1619 20.7268 79.082 20.253C79.0021 19.7595 78.9422 19.1673 78.9022 18.4764C78.8623 17.7856 78.8324 17.3315 78.8124 17.1144C78.6726 15.8511 78.3231 14.9628 77.764 14.4495C77.2048 13.9363 76.2863 13.6797 75.0082 13.6797H71.5934V21.5262H66.0219ZM71.5934 9.7712H75.5174C76.5758 9.7712 77.3946 9.59354 77.9737 9.23822C78.5728 8.88291 78.8723 8.19201 78.8723 7.16555C78.8723 5.52714 77.734 4.70794 75.4575 4.70794H71.5934V9.7712Z" fill="url(#paint3_linear_219_10)"/>
<path d="M102 0.444147V5.12248H95.6797V21.5262H90.0483V5.12248H83.7279V0.444147H102Z" fill="url(#paint4_linear_219_10)"/>
<defs>
<linearGradient id="paint0_linear_219_10" x1="-29.117" y1="7.27701e-07" x2="138.842" y2="28.6955" gradientUnits="userSpaceOnUse">
<stop stop-color="#4A00E0"/>
<stop offset="1" stop-color="#8E2DE2"/>
</linearGradient>
<linearGradient id="paint1_linear_219_10" x1="-29.117" y1="7.27701e-07" x2="138.842" y2="28.6955" gradientUnits="userSpaceOnUse">
<stop stop-color="#4A00E0"/>
<stop offset="1" stop-color="#8E2DE2"/>
</linearGradient>
<linearGradient id="paint2_linear_219_10" x1="-29.117" y1="7.27701e-07" x2="138.842" y2="28.6955" gradientUnits="userSpaceOnUse">
<stop stop-color="#4A00E0"/>
<stop offset="1" stop-color="#8E2DE2"/>
</linearGradient>
<linearGradient id="paint3_linear_219_10" x1="-29.117" y1="7.27701e-07" x2="138.842" y2="28.6955" gradientUnits="userSpaceOnUse">
<stop stop-color="#4A00E0"/>
<stop offset="1" stop-color="#8E2DE2"/>
</linearGradient>
<linearGradient id="paint4_linear_219_10" x1="-29.117" y1="7.27701e-07" x2="138.842" y2="28.6955" gradientUnits="userSpaceOnUse">
<stop stop-color="#4A00E0"/>
<stop offset="1" stop-color="#8E2DE2"/>
</linearGradient>
</defs>
</svg>
