<?xml version="1.0" standalone="no"?>
<!DOCTYPE svg PUBLIC "-//W3C//DTD SVG 20010904//EN"
 "http://www.w3.org/TR/2001/REC-SVG-20010904/DTD/svg10.dtd">
<svg version="1.0" xmlns="http://www.w3.org/2000/svg"
 width="1000.000000pt" height="1000.000000pt" viewBox="0 0 1000.000000 1000.000000"
 preserveAspectRatio="xMidYMid meet">
<metadata>
Created by potrace 1.14, written by Peter Selinger 2001-2017
</metadata>
<g transform="translate(0.000000,1000.000000) scale(0.100000,-0.100000)"
fill="#000000" stroke="none">
<path d="M4659 9696 c-2 -2 -60 -6 -129 -10 -69 -4 -141 -8 -160 -11 -19 -2
-64 -7 -100 -10 -36 -4 -76 -8 -90 -10 -14 -1 -52 -6 -85 -10 -33 -4 -62 -9
-65 -10 -3 -2 -30 -6 -60 -10 -155 -19 -441 -86 -650 -152 -506 -159 -962
-420 -1299 -746 -127 -123 -331 -367 -331 -396 0 -6 -4 -11 -10 -11 -5 0 -10
-4 -10 -9 0 -5 -16 -33 -35 -63 -146 -221 -286 -619 -320 -913 -4 -33 -9 -69
-11 -80 -8 -43 -17 -225 -17 -335 0 -114 11 -318 17 -329 2 -3 6 -28 10 -56 7
-55 15 -102 21 -125 2 -8 7 -30 10 -47 11 -68 77 -266 121 -367 76 -173 185
-350 301 -487 58 -68 222 -231 283 -280 30 -24 57 -46 60 -49 12 -12 150 -109
208 -145 132 -83 128 -81 287 -162 129 -66 270 -126 475 -201 506 -186 931
-324 1685 -548 130 -38 433 -123 535 -150 52 -14 133 -36 180 -50 46 -14 91
-27 100 -29 29 -6 272 -96 351 -131 327 -144 503 -316 566 -554 25 -92 24
-317 -1 -425 -18 -79 -92 -255 -107 -255 -4 0 -10 -8 -13 -18 -8 -23 -116
-131 -173 -172 -123 -90 -368 -183 -541 -205 -19 -2 -42 -6 -51 -9 -15 -4 -49
-8 -215 -22 -90 -8 -376 -8 -491 0 -425 29 -777 127 -1016 281 -84 54 -97 65
-187 150 -226 214 -348 514 -367 896 -2 46 -4 86 -4 90 -1 3 -539 5 -1196 5
l-1196 0 6 -131 c3 -72 7 -140 9 -150 2 -11 7 -56 11 -100 9 -110 38 -278 73
-425 124 -517 366 -959 724 -1320 127 -128 157 -155 278 -251 550 -434 1257
-700 2135 -803 133 -16 159 -18 375 -32 174 -12 760 -12 915 0 193 14 325 25
357 31 9 2 43 6 75 10 32 3 69 7 83 10 14 3 41 7 60 10 42 7 97 16 125 22 11
2 36 6 55 9 267 44 681 172 960 296 659 294 1180 766 1458 1323 113 226 205
515 237 740 3 23 7 50 9 61 3 12 7 57 11 100 4 43 9 88 12 99 5 24 4 418 -1
460 -2 17 -7 64 -11 105 -4 41 -9 84 -11 95 -2 11 -6 36 -9 55 -23 163 -102
420 -182 591 -37 80 -148 270 -178 307 -8 9 -35 46 -62 82 -67 90 -270 293
-378 377 -82 64 -270 193 -281 193 -2 0 -23 11 -45 25 -46 30 -223 120 -319
163 -61 27 -153 64 -365 145 -268 104 -1139 379 -1575 499 -164 45 -248 68
-320 88 -41 12 -82 23 -90 25 -8 2 -82 23 -165 45 -199 54 -297 81 -315 85
-104 24 -465 124 -530 147 -116 41 -251 109 -288 145 -7 7 -21 18 -30 25 -25
19 -76 87 -100 134 -36 72 -58 181 -60 299 -3 250 94 426 313 569 141 92 259
140 450 180 120 25 271 39 425 39 714 2 1173 -207 1379 -628 42 -85 80 -202
95 -290 8 -50 19 -129 20 -155 l2 -25 1133 -1 1134 -1 -7 136 c-7 140 -8 154
-21 256 -4 33 -9 71 -10 85 -2 14 -6 40 -9 58 -3 17 -8 46 -11 62 -60 347
-199 706 -383 985 -91 138 -177 243 -312 384 -136 140 -356 307 -570 431 -71
42 -285 150 -295 150 -3 0 -24 9 -48 19 -229 102 -600 206 -917 256 -19 3 -46
7 -60 10 -14 2 -45 7 -70 9 -25 3 -61 7 -80 10 -62 9 -164 19 -310 32 -67 6
-776 15 -781 10z"/>
</g>
</svg>
