<svg width="24" height="24" viewBox="0 0 24 24" xmlns="http://www.w3.org/2000/svg"><path d="M12.0001 21.9996C10.7501 21.9996 9.57927 21.7621 8.4876 21.2871C7.39593 20.8121 6.44593 20.1704 5.6376 19.3621C4.82926 18.5538 4.1876 17.6038 3.7126 16.5121C3.2376 15.4204 3.0001 14.2496 3.0001 12.9996C3.0001 11.7496 3.2376 10.5788 3.7126 9.48711C4.1876 8.39544 4.82926 7.44544 5.6376 6.63711C6.44593 5.82878 7.39593 5.18711 8.4876 4.71211C9.57927 4.23711 10.7501 3.99961 12.0001 3.99961C13.2501 3.99961 14.4209 4.23711 15.5126 4.71211C16.6043 5.18711 17.5543 5.82878 18.3626 6.63711C19.1709 7.44544 19.8126 8.39544 20.2876 9.48711C20.7626 10.5788 21.0001 11.7496 21.0001 12.9996C21.0001 14.2496 20.7626 15.4204 20.2876 16.5121C19.8126 17.6038 19.1709 18.5538 18.3626 19.3621C17.5543 20.1704 16.6043 20.8121 15.5126 21.2871C14.4209 21.7621 13.2501 21.9996 12.0001 21.9996ZM14.8001 17.1996L16.2001 15.7996L13.0001 12.5996V7.99961H11.0001V13.3996L14.8001 17.1996ZM5.6001 2.34961L7.0001 3.74961L2.7501 7.99961L1.3501 6.59961L5.6001 2.34961ZM18.4001 2.34961L22.6501 6.59961L21.2501 7.99961L17.0001 3.74961L18.4001 2.34961Z"/></svg>