<svg width="20" height="21" viewBox="0 0 20 21" fill="none" xmlns="http://www.w3.org/2000/svg">
<g clip-path="url(#clip0_238_280)">
<path d="M19.8052 10.7292C19.8052 10.0494 19.7501 9.36599 19.6325 8.69727H10.2002V12.548H15.6016C15.3775 13.7899 14.6573 14.8885 13.6027 15.5866V18.0851H16.8252C18.7176 16.3435 19.8052 13.7715 19.8052 10.7292Z" fill="#4285F4"/>
<path d="M10.1999 20.4985C12.897 20.4985 15.1714 19.613 16.8286 18.0845L13.6061 15.586C12.7096 16.1959 11.5521 16.5413 10.2036 16.5413C7.59474 16.5413 5.38272 14.7813 4.58904 12.415H1.26367V14.9907C2.96127 18.3674 6.41892 20.4985 10.1999 20.4985V20.4985Z" fill="#34A853"/>
<path d="M4.58564 12.4151C4.16676 11.1732 4.16676 9.82836 4.58564 8.58644V6.01074H1.26395C-0.154389 8.83629 -0.154389 12.1652 1.26395 14.9908L4.58564 12.4151V12.4151Z" fill="#FBBC04"/>
<path d="M10.1999 4.45694C11.6256 4.43489 13.0035 4.97134 14.036 5.95606L16.8911 3.10111C15.0833 1.40358 12.6838 0.470303 10.1999 0.499697C6.41892 0.499697 2.96126 2.6308 1.26367 6.01117L4.58537 8.58687C5.37537 6.21694 7.59106 4.45694 10.1999 4.45694V4.45694Z" fill="#EA4335"/>
</g>
<defs>
<clipPath id="clip0_238_280">
<rect width="20" height="19.9993" fill="white" transform="translate(0 0.499023)"/>
</clipPath>
</defs>
</svg>
