<?xml version="1.0" encoding="utf-8"?><svg viewBox="0 0 30 30" xmlns="http://www.w3.org/2000/svg" xmlns:xlink="http://www.w3.org/1999/xlink"><style>:root>svg{display:none}:root>svg:target{display:block}</style><svg viewBox="0 0 24 24" id="accessibility" xmlns="http://www.w3.org/2000/svg"><path d="M12 6.25c-.527 0-.978-.187-1.354-.563a1.845 1.845 0 01-.563-1.353c0-.527.188-.979.563-1.354A1.845 1.845 0 0112 2.417c.527 0 .978.188 1.354.563.375.375.563.827.563 1.354 0 .527-.188.978-.563 1.353A1.845 1.845 0 0112 6.25zM9.125 21.584V9.125h-5.75V7.21h17.25v1.916h-5.75v12.459h-1.917v-5.75h-1.916v5.75H9.125z"/></svg><svg viewBox="0 0 24 24" id="acute" xmlns="http://www.w3.org/2000/svg"><path d="M15 20c-2.233 0-4.125-.775-5.675-2.325C7.775 16.125 7 14.233 7 12c0-2.217.775-4.104 2.325-5.662C10.875 4.779 12.767 4 15 4c2.217 0 4.104.78 5.663 2.338C22.22 7.896 23 9.783 23 12c0 2.233-.78 4.125-2.337 5.675C19.104 19.225 17.216 20 15 20zm2.275-4.275L18.7 14.3 16 11.6V8h-2v4.425l3.275 3.3zM2 9V7h4v2H2zm-1 4v-2h5v2H1zm1 4v-2h4v2H2z"/></svg><svg viewBox="0 0 24 24" id="add-notes" xmlns="http://www.w3.org/2000/svg"><path d="M17.5 21h1v-2.5H21v-1h-2.5V15h-1v2.5H15v1h2.5V21zm.5 2c-1.383 0-2.563-.488-3.537-1.462C13.488 20.562 13 19.383 13 18s.488-2.563 1.463-3.537C15.438 13.488 16.617 13 18 13s2.563.488 3.538 1.463C22.512 15.438 23 16.617 23 18s-.488 2.563-1.462 3.538C20.562 22.512 19.383 23 18 23zM7 9h10V7H7v2zm4.675 12H5c-.55 0-1.02-.196-1.413-.587A1.926 1.926 0 013 19V5c0-.55.196-1.02.587-1.413A1.926 1.926 0 015 3h14c.55 0 1.02.196 1.413.587C20.803 3.98 21 4.45 21 5v6.7a7.168 7.168 0 00-1.462-.525A6.637 6.637 0 0018 11c-.183 0-.354.004-.512.012-.159.009-.321.03-.488.063V11H7v2h6.125c-.3.283-.57.592-.813.925A6.889 6.889 0 0011.675 15H7v2h4.075c-.033.167-.054.33-.063.488-.008.158-.012.329-.012.512 0 .55.05 1.063.15 1.538.1.474.275.962.525 1.462z"/></svg><svg viewBox="0 0 24 24" id="alarm" xmlns="http://www.w3.org/2000/svg"><path d="M12 22c-1.25 0-2.42-.238-3.512-.713a9.149 9.149 0 01-2.85-1.925 9.147 9.147 0 01-1.925-2.85A8.707 8.707 0 013 13c0-1.25.238-2.421.713-3.513a9.148 9.148 0 011.925-2.85 9.148 9.148 0 012.85-1.925A8.707 8.707 0 0112 4c1.25 0 2.42.237 3.513.712a9.147 9.147 0 012.85 1.925 9.149 9.149 0 011.925 2.85A8.707 8.707 0 0121 13c0 1.25-.237 2.42-.712 3.512a9.148 9.148 0 01-1.925 2.85 9.148 9.148 0 01-2.85 1.925A8.707 8.707 0 0112 22zm2.8-4.8l1.4-1.4-3.2-3.2V8h-2v5.4l3.8 3.8zM5.6 2.35L7 3.75 2.75 8l-1.4-1.4L5.6 2.35zm12.8 0l4.25 4.25-1.4 1.4L17 3.75l1.4-1.4z"/></svg><svg viewBox="0 0 24 24" id="arrow-type-1" xmlns="http://www.w3.org/2000/svg"><path d="M6.245 11.13a.869.869 0 111.229-1.229l3.819 3.82a1 1 0 001.414 0l3.82-3.82a.87.87 0 011.229 1.229l-5.049 5.048a1 1 0 01-1.414 0L6.245 11.13z"/></svg><svg viewBox="0 0 24 24" id="arrow-type-2" xmlns="http://www.w3.org/2000/svg"><path d="M10.005 18.139a.927.927 0 11-1.31-1.31l4.12-4.122a1 1 0 000-1.414l-4.12-4.12a.927.927 0 111.31-1.31l5.432 5.43a1 1 0 010 1.414l-5.432 5.432z"/></svg><svg viewBox="0 0 24 24" id="article" xmlns="http://www.w3.org/2000/svg"><path d="M5 21c-.55 0-1.02-.196-1.413-.587A1.926 1.926 0 013 19V5c0-.55.196-1.02.587-1.413A1.926 1.926 0 015 3h14c.55 0 1.02.196 1.413.587C20.803 3.98 21 4.45 21 5v14c0 .55-.196 1.02-.587 1.413A1.926 1.926 0 0119 21H5zm2-4h7v-2H7v2zm0-4h10v-2H7v2zm0-4h10V7H7v2z"/></svg><svg viewBox="0 0 24 24" id="burst-mode" xmlns="http://www.w3.org/2000/svg"><path d="M1 19V5h2v14H1zm4 0V5h2v14H5zm6 0c-.55 0-1.02-.196-1.412-.587A1.926 1.926 0 019 17V7c0-.55.196-1.02.588-1.412A1.926 1.926 0 0111 5h10c.55 0 1.02.196 1.413.588.391.391.587.862.587 1.412v10c0 .55-.196 1.02-.587 1.413A1.926 1.926 0 0121 19H11zm1-4h8l-2.6-3.5-1.9 2.5-1.4-1.85L12 15z"/></svg><svg viewBox="0 0 24 24" id="chat-bubble" xmlns="http://www.w3.org/2000/svg"><path d="M2 22V4c0-.55.196-1.02.587-1.413A1.926 1.926 0 014 2h16c.55 0 1.02.196 1.413.587C21.803 2.98 22 3.45 22 4v12c0 .55-.196 1.02-.587 1.413A1.926 1.926 0 0120 18H6l-4 4z"/></svg><svg viewBox="0 0 24 24" id="check" xmlns="http://www.w3.org/2000/svg"><path d="M9.55 18.191l-5.891-5.89 1.622-1.623 4.269 4.269 9.169-9.17L20.341 7.4 9.55 18.191z"/></svg><svg viewBox="0 0 30 30" id="close" xmlns="http://www.w3.org/2000/svg"><path fill-rule="evenodd" clip-rule="evenodd" d="M6.952 6.951a1.2 1.2 0 011.697 0L15 13.303l6.352-6.352a1.2 1.2 0 111.697 1.698L16.697 15l6.352 6.352a1.2 1.2 0 11-1.697 1.697L15 16.697 8.65 23.05a1.2 1.2 0 11-1.697-1.697L13.303 15 6.952 8.649a1.2 1.2 0 010-1.698z"/></svg><svg viewBox="0 0 24 24" id="copy" xmlns="http://www.w3.org/2000/svg"><path d="M6.063 20.708c-.436 0-.809-.155-1.119-.465a1.525 1.525 0 01-.465-1.118V8.042h1.584v11.083h8.708v1.583H6.063zm3.166-3.166c-.435 0-.808-.155-1.118-.465a1.524 1.524 0 01-.465-1.119V4.875c0-.435.155-.808.465-1.118.31-.31.683-.465 1.118-.465h5.542l4.75 4.75v7.916c0 .436-.155.809-.465 1.119-.31.31-.683.465-1.119.465H9.23zm4.75-8.709h3.959l-3.959-3.958v3.958z"/></svg><svg viewBox="0 0 24 24" id="credit-card" xmlns="http://www.w3.org/2000/svg"><path d="M4 20c-.55 0-1.02-.196-1.413-.587A1.926 1.926 0 012 18V6c0-.55.196-1.02.587-1.412A1.926 1.926 0 014 4h16c.55 0 1.02.196 1.413.588.391.391.587.862.587 1.412v12c0 .55-.196 1.02-.587 1.413A1.926 1.926 0 0120 20H4zm0-8h16V8H4v4z"/></svg><svg viewBox="0 0 24 24" id="draw" xmlns="http://www.w3.org/2000/svg"><path d="M3.797 21.203v-4.28l13.51-13.485a2.2 2.2 0 01.702-.476c.26-.11.518-.165.776-.165.275 0 .54.055.793.165.253.11.48.269.679.476l1.316 1.305c.208.195.365.418.471.67a2.014 2.014 0 01.003 1.566 2.1 2.1 0 01-.474.708L8.083 21.203H3.796zM18.56 7.77l1.542-1.541-1.33-1.33-1.535 1.542 1.323 1.329zm-4.68 13.434a6.69 6.69 0 003.458-.937c1.06-.624 1.59-1.495 1.59-2.61 0-.609-.158-1.132-.475-1.572-.316-.439-.745-.819-1.287-1.14l-1.54 1.547c.383.163.68.342.894.538.212.196.319.405.319.626 0 .372-.3.707-.901 1.008-.6.3-1.286.45-2.058.45-.295 0-.542.1-.742.3-.2.2-.3.447-.3.742 0 .296.1.544.3.746.2.201.447.302.742.302zm-9.299-7.895l1.596-1.596c-.413-.133-.732-.271-.955-.415-.224-.144-.336-.295-.336-.453 0-.188.146-.382.436-.582.29-.2.92-.5 1.89-.9 1.48-.614 2.461-1.182 2.947-1.705.485-.523.727-1.127.727-1.813 0-.932-.37-1.673-1.108-2.223-.74-.55-1.718-.824-2.934-.824-.754 0-1.43.134-2.03.403-.6.268-1.06.598-1.38.99a.981.981 0 00-.234.757.979.979 0 00.39.683.964.964 0 00.752.234c.276-.03.512-.144.708-.34.225-.225.478-.388.76-.488.28-.1.626-.15 1.035-.15.667 0 1.16.096 1.476.288.317.192.476.416.476.67 0 .234-.145.446-.435.638-.29.192-.951.515-1.985.97-1.358.572-2.294 1.103-2.808 1.594a2.39 2.39 0 00-.772 1.798c0 .578.155 1.06.466 1.447.312.387.751.726 1.318 1.017z"/></svg><svg viewBox="0 0 24 24" id="edit-document" xmlns="http://www.w3.org/2000/svg"><path d="M6 22c-.55 0-1.02-.196-1.412-.587A1.926 1.926 0 014 20V4c0-.55.196-1.02.588-1.413A1.926 1.926 0 016 2h8l6 6v3a3.966 3.966 0 00-2 1.1l-6 5.975V22H6zm8 0v-3.075l5.525-5.5c.15-.15.317-.258.5-.325a1.6 1.6 0 01.55-.1 1.504 1.504 0 011.075.45l.925.925c.133.15.238.317.313.5.074.183.112.367.112.55 0 .183-.033.37-.1.563a1.342 1.342 0 01-.325.512l-5.5 5.5H14zm6.575-5.6l.925-.975-.925-.925-.95.95.95.95zM13 9h5l-5-5v5z"/></svg><svg viewBox="0 0 24 24" id="event-note" xmlns="http://www.w3.org/2000/svg"><path d="M7 14v-2h10v2H7zm0 4v-2h7v2H7zm-2 4c-.55 0-1.02-.196-1.413-.587A1.926 1.926 0 013 20V6c0-.55.196-1.02.587-1.412A1.926 1.926 0 015 4h1V2h2v2h8V2h2v2h1c.55 0 1.02.196 1.413.588.391.391.587.862.587 1.412v14c0 .55-.196 1.02-.587 1.413A1.926 1.926 0 0119 22H5zm0-2h14V10H5v10z"/></svg><svg fill="none" viewBox="0 0 20 21" id="google-color" xmlns="http://www.w3.org/2000/svg"><g clip-path="url(#aqclip0_238_280)"><path d="M19.805 10.73c0-.68-.055-1.364-.172-2.033H10.2v3.851h5.402a4.628 4.628 0 01-2 3.039v2.498h3.223c1.893-1.742 2.98-4.314 2.98-7.356z" fill="#4285F4"/><path d="M10.2 20.498c2.697 0 4.971-.885 6.629-2.414l-3.223-2.498c-.896.61-2.054.955-3.402.955-2.61 0-4.821-1.76-5.615-4.126H1.264v2.576a10.001 10.001 0 008.936 5.508z" fill="#34A853"/><path d="M4.586 12.415a5.99 5.99 0 010-3.829V6.011H1.264a10.008 10.008 0 000 8.98l3.322-2.576z" fill="#FBBC04"/><path d="M10.2 4.457a5.434 5.434 0 013.836 1.5L16.891 3.1A9.611 9.611 0 0010.2.5 9.998 9.998 0 001.264 6.01l3.321 2.576c.79-2.37 3.006-4.13 5.615-4.13z" fill="#EA4335"/></g><defs><clipPath id="aqclip0_238_280"><path fill="#fff" transform="translate(0 .499)" d="M0 0h20v19.999H0z"/></clipPath></defs></svg><svg viewBox="0 0 24 24" id="grading" xmlns="http://www.w3.org/2000/svg"><path d="M16.425 20.975L13.6 18.15l1.4-1.4 1.425 1.425L19.6 15l1.4 1.4-4.575 4.575zM3 21v-2h9v2H3zm0-4v-2h9v2H3zm0-4v-2h18v2H3zm0-4V7h18v2H3zm0-4V3h18v2H3z"/></svg><svg viewBox="0 0 24 24" id="license" xmlns="http://www.w3.org/2000/svg"><path d="M12 13a2.893 2.893 0 01-2.125-.875A2.893 2.893 0 019 10c0-.833.292-1.542.875-2.125A2.893 2.893 0 0112 7c.833 0 1.542.292 2.125.875S15 9.167 15 10s-.292 1.542-.875 2.125A2.893 2.893 0 0112 13zM6 23v-7.725a7.707 7.707 0 01-1.475-2.4A7.862 7.862 0 014 10c0-2.233.775-4.125 2.325-5.675C7.875 2.775 9.767 2 12 2c2.233 0 4.125.775 5.675 2.325C19.225 5.875 20 7.767 20 10a7.862 7.862 0 01-.525 2.875c-.35.9-.842 1.7-1.475 2.4V23l-6-2-6 2zm6-7c1.667 0 3.083-.583 4.25-1.75C17.417 13.083 18 11.667 18 10c0-1.667-.583-3.083-1.75-4.25C15.083 4.583 13.667 4 12 4c-1.667 0-3.083.583-4.25 1.75C6.583 6.917 6 8.333 6 10c0 1.667.583 3.083 1.75 4.25C8.917 15.417 10.333 16 12 16z"/></svg><svg viewBox="0 0 24 24" id="magnify-fullscreen" xmlns="http://www.w3.org/2000/svg"><path d="M4.333 19.666c-.527 0-.978-.187-1.353-.563a1.845 1.845 0 01-.563-1.353V6.25c0-.527.187-.979.563-1.354a1.846 1.846 0 011.353-.563h15.334c.527 0 .978.188 1.353.563.376.375.563.827.563 1.354v11.5c0 .527-.187.978-.563 1.353a1.846 1.846 0 01-1.353.563H4.333zm9.584-5.75h1.916V12h1.917v-1.917h-1.917V8.166h-1.916v1.917H12V12h1.917v1.916z"/></svg><svg viewBox="0 0 24 24" id="mail" xmlns="http://www.w3.org/2000/svg"><path d="M4 20c-.55 0-1.02-.196-1.413-.587A1.926 1.926 0 012 18V6c0-.55.196-1.02.587-1.412A1.926 1.926 0 014 4h16c.55 0 1.02.196 1.413.588.391.391.587.862.587 1.412v12c0 .55-.196 1.02-.587 1.413A1.926 1.926 0 0120 20H4zm8-7l8-5V6l-8 5-8-5v2l8 5z"/></svg><svg viewBox="0 0 24 24" id="menu-close" xmlns="http://www.w3.org/2000/svg"><path d="M14.726 15.807a.764.764 0 101.08-1.08l-2.018-2.02a1 1 0 010-1.414l2.019-2.019a.764.764 0 00-1.08-1.08l-2.02 2.019a1 1 0 01-1.414 0l-2.02-2.02a.764.764 0 00-1.08 1.08l2.02 2.02a1 1 0 010 1.415l-2.02 2.019a.764.764 0 101.08 1.08l2.02-2.019a1 1 0 011.414 0l2.02 2.02z"/></svg><svg viewBox="0 0 24 24" id="menu-open" xmlns="http://www.w3.org/2000/svg"><path d="M9.919 14.979a.813.813 0 010-1.625h9.393a.812.812 0 110 1.625H9.92zm-5.232-4.333a.813.813 0 010-1.625h14.625a.813.813 0 110 1.625H4.688z"/></svg><svg viewBox="0 0 24 24" id="pencil" xmlns="http://www.w3.org/2000/svg"><path d="M3 21v-4.25L16.2 3.575c.2-.183.42-.325.663-.425.241-.1.495-.15.762-.15s.525.05.775.15c.25.1.467.25.65.45L20.425 5c.2.183.346.4.438.65a2.165 2.165 0 010 1.512 1.874 1.874 0 01-.438.663L7.25 21H3zM17.6 7.8L19 6.4 17.6 5l-1.4 1.4 1.4 1.4z"/></svg><svg viewBox="0 0 24 24" id="plus-type-1" xmlns="http://www.w3.org/2000/svg"><path d="M10.951 14.049a1 1 0 00-1-1H7.078a1 1 0 01-1-1v-.098a1 1 0 011-1H9.95a1 1 0 001-1V7.078a1 1 0 011-1h.098a1 1 0 011 1V9.95a1 1 0 001 1h2.873a1 1 0 011 1v.098a1 1 0 01-1 1H14.05a1 1 0 00-1 1v2.873a1 1 0 01-1 1h-.098a1 1 0 01-1-1v-2.873z"/></svg><svg viewBox="0 0 24 24" id="plus-type-2" xmlns="http://www.w3.org/2000/svg"><path d="M12.886 13.888c0-.553.449-1.002 1.002-1.002h2.226a.886.886 0 100-1.771h-2.226a1.003 1.003 0 01-1.002-1.003V7.886a.886.886 0 10-1.771 0v2.226c0 .553-.45 1.002-1.003 1.002H7.886a.886.886 0 100 1.771h2.226c.553 0 1.002.45 1.002 1.003v2.226a.886.886 0 101.771 0v-2.226z"/></svg><svg viewBox="0 0 24 24" id="refresh" xmlns="http://www.w3.org/2000/svg"><path d="M6.538 15.206a6.53 6.53 0 01-.654-1.543 6.093 6.093 0 01-.217-1.623c0-1.768.613-3.273 1.84-4.513 1.227-1.24 2.725-1.86 4.493-1.86h.139L10.872 4.4l1.108-1.108 3.167 3.166-3.167 3.167-1.108-1.108 1.267-1.267H12c-1.32 0-2.441.465-3.365 1.395-.923.93-1.385 2.062-1.385 3.395 0 .343.04.68.119 1.009.079.33.198.653.356.97l-1.187 1.187zm5.482 5.502l-3.167-3.166 3.167-3.167 1.108 1.108-1.267 1.267H12c1.32 0 2.441-.465 3.365-1.395.923-.93 1.385-2.062 1.385-3.395 0-.343-.04-.679-.119-1.009a4.526 4.526 0 00-.356-.97l1.188-1.187c.29.501.508 1.016.653 1.544a6.09 6.09 0 01.217 1.623c0 1.768-.613 3.272-1.84 4.512-1.227 1.24-2.725 1.86-4.493 1.86h-.139l1.267 1.267-1.108 1.108z"/></svg><svg viewBox="0 0 24 24" id="reply-all" xmlns="http://www.w3.org/2000/svg"><path d="M16 7l6 6-6 6-1.425-1.4 4.6-4.6-4.6-4.6L16 7zM4 5v4c0 .833.292 1.542.875 2.125A2.893 2.893 0 007 12h6.175l-3.6-3.6L11 7l6 6-6 6-1.425-1.4 3.6-3.6H7c-1.383 0-2.563-.488-3.538-1.463C2.487 11.563 2 10.383 2 9V5h2z"/></svg><svg viewBox="0 0 24 24" id="send" xmlns="http://www.w3.org/2000/svg"><path d="M3 20v-6l8-2-8-2V4l19 8-19 8z"/></svg><svg viewBox="0 0 24 24" id="thumb-up" xmlns="http://www.w3.org/2000/svg"><path d="M17.75 20.625H8.167V8.166l6.708-6.708 1.198 1.198c.112.112.204.263.276.455.071.192.107.375.107.551v.336l-1.054 4.168h5.223c.511 0 .958.192 1.342.575.383.384.575.83.575 1.342V12a1.95 1.95 0 01-.144.718l-2.875 6.757c-.144.32-.383.59-.719.814a1.872 1.872 0 01-1.054.336zM6.25 8.166v12.459H2.417V8.166H6.25z"/></svg><svg fill="none" viewBox="0 0 20 21" id="vk-color" xmlns="http://www.w3.org/2000/svg"><g clip-path="url(#beclip0_238_264)"><path fill-rule="evenodd" clip-rule="evenodd" d="M1.407 1.907C0 3.314 0 5.571 0 10.1v.8c0 4.529 0 6.786 1.407 8.193S5.071 20.5 9.6 20.5h.8c4.529 0 6.786 0 8.193-1.407S20 15.429 20 10.9v-.8c0-4.529 0-6.786-1.407-8.193S14.929.5 10.4.5h-.8C5.071.5 2.814.5 1.407 1.907zM3.321 6.75c.115 5.2 2.85 8.336 7.358 8.336h.264v-2.979c1.643.164 2.871 1.393 3.371 2.979h2.372a6.585 6.585 0 00-3.35-4.179 6.348 6.348 0 002.85-4.157h-2.157c-.458 1.657-1.8 3.157-3.086 3.3v-3.3H8.75v5.771c-1.329-.328-3.071-1.95-3.143-5.771H3.321z" fill="#07F"/></g><defs><clipPath id="beclip0_238_264"><rect y=".5" width="20" height="20" rx="10" fill="#fff"/></clipPath></defs></svg><svg fill="none" viewBox="0 0 20 21" id="yandex-color" xmlns="http://www.w3.org/2000/svg"><path d="M10 20.5c5.523 0 10-4.477 10-10S15.523.5 10 .5 0 4.977 0 10.5s4.477 10 10 10z" fill="#FC3F1D"/><path d="M13.192 16.1h-1.984V6.283h-.884c-1.616 0-2.466.817-2.466 2.025 0 1.375.591 2.008 1.8 2.825l1 .667-2.876 4.3h-2.14l2.583-3.839c-1.486-1.056-2.316-2.098-2.316-3.836 0-2.192 1.516-3.675 4.407-3.675h2.876V16.1z" fill="#fff"/></svg></svg>