<svg width="24" height="24" viewBox="0 0 24 24" xmlns="http://www.w3.org/2000/svg"><path d="M4.33341 19.6663C3.80633 19.6663 3.35512 19.4787 2.97977 19.1033C2.60442 18.728 2.41675 18.2768 2.41675 17.7497L2.41675 6.24967C2.41675 5.72259 2.60442 5.27138 2.97977 4.89603C3.35512 4.52068 3.80633 4.33301 4.33341 4.33301L19.6667 4.33301C20.1938 4.33301 20.645 4.52068 21.0204 4.89603C21.3957 5.27138 21.5834 5.72259 21.5834 6.24967L21.5834 17.7497C21.5834 18.2768 21.3957 18.728 21.0204 19.1033C20.645 19.4787 20.1938 19.6663 19.6667 19.6663L4.33341 19.6663ZM13.9167 13.9163H15.8334V11.9997L17.7501 11.9997V10.083L15.8334 10.083L15.8334 8.16634H13.9167L13.9167 10.083H12.0001V11.9997H13.9167V13.9163Z"/></svg>