<svg width="24" height="24" viewBox="0 0 24 24" xmlns="http://www.w3.org/2000/svg"><path d="M9.91891 14.9788C9.47018 14.9788 9.10641 14.6151 9.10641 14.1663V14.1663C9.10641 13.7176 9.47018 13.3538 9.91891 13.3538H19.3125C19.7612 13.3538 20.125 13.7176 20.125 14.1663V14.1663C20.125 14.6151 19.7612 14.9788 19.3125 14.9788H9.91891ZM4.6875 10.6455C4.23877 10.6455 3.875 10.2817 3.875 9.83301V9.83301C3.875 9.38428 4.23877 9.02051 4.6875 9.02051H19.3125C19.7612 9.02051 20.125 9.38428 20.125 9.83301V9.83301C20.125 10.2817 19.7612 10.6455 19.3125 10.6455H4.6875Z"/></svg>