<svg width="24" height="24" viewBox="0 0 24 24" xmlns="http://www.w3.org/2000/svg"><path d="M12.8856 13.8882C12.8856 13.3345 13.3345 12.8856 13.8882 12.8856H16.1144C16.6035 12.8856 17 12.4891 17 12V12C17 11.5109 16.6035 11.1144 16.1144 11.1144H13.8882C13.3345 11.1144 12.8856 10.6655 12.8856 10.1118V7.88564C12.8856 7.39651 12.4891 7 12 7V7C11.5109 7 11.1144 7.39651 11.1144 7.88564V10.1118C11.1144 10.6655 10.6655 11.1144 10.1118 11.1144L7.88564 11.1144C7.39651 11.1144 7 11.5109 7 12V12C7 12.4891 7.39651 12.8856 7.88564 12.8856L10.1118 12.8856C10.6655 12.8856 11.1144 13.3345 11.1144 13.8882L11.1144 16.1144C11.1144 16.6035 11.5109 17 12 17V17C12.4891 17 12.8856 16.6035 12.8856 16.1144L12.8856 13.8882Z"/></svg>