<svg width="24" height="24" viewBox="0 0 24 24" xmlns="http://www.w3.org/2000/svg"><path d="M17.7501 20.6247L8.16675 20.6247L8.16675 8.16634L14.8751 1.45801L16.073 2.65592C16.1848 2.76773 16.2766 2.91947 16.3485 3.11113C16.4204 3.3028 16.4563 3.48648 16.4563 3.66217V3.99759L15.4022 8.16634L20.6251 8.16634C21.1362 8.16634 21.5834 8.35801 21.9667 8.74134C22.3501 9.12467 22.5417 9.5719 22.5417 10.083V11.9997C22.5417 12.1115 22.5298 12.2313 22.5058 12.359C22.4819 12.4868 22.4459 12.6066 22.398 12.7184L19.523 19.4747C19.3792 19.7941 19.1397 20.0656 18.8042 20.2893C18.4688 20.5129 18.1174 20.6247 17.7501 20.6247ZM6.25008 8.16634L6.25008 20.6247H2.41675L2.41675 8.16634H6.25008Z"/></svg>