<svg width="24" height="24" viewBox="0 0 24 24" xmlns="http://www.w3.org/2000/svg"><path d="M12 6.25033C11.4729 6.25033 11.0217 6.06265 10.6464 5.6873C10.271 5.31196 10.0833 4.86074 10.0833 4.33366C10.0833 3.80658 10.271 3.35536 10.6464 2.98001C11.0217 2.60467 11.4729 2.41699 12 2.41699C12.5271 2.41699 12.9783 2.60467 13.3536 2.98001C13.729 3.35536 13.9167 3.80658 13.9167 4.33366C13.9167 4.86074 13.729 5.31196 13.3536 5.6873C12.9783 6.06265 12.5271 6.25033 12 6.25033ZM9.125 21.5837L9.125 9.12533H3.375V7.20866L20.625 7.20866V9.12533L14.875 9.12533L14.875 21.5837L12.9583 21.5837L12.9583 15.8337H11.0417L11.0417 21.5837H9.125Z"/></svg>