<svg width="24" height="24" viewBox="0 0 24 24" xmlns="http://www.w3.org/2000/svg"><path d="M6.06252 20.7084C5.6271 20.7084 5.25436 20.5534 4.94429 20.2433C4.63422 19.9332 4.47919 19.5605 4.47919 19.1251V8.04175H6.06252V19.1251H14.7709V20.7084H6.06252ZM9.22919 17.5417C8.79377 17.5417 8.42103 17.3867 8.11096 17.0766C7.80089 16.7666 7.64585 16.3938 7.64585 15.9584V4.87508C7.64585 4.43966 7.80089 4.06692 8.11096 3.75685C8.42103 3.44678 8.79377 3.29175 9.22919 3.29175H14.7709L19.5209 8.04175V15.9584C19.5209 16.3938 19.3658 16.7666 19.0557 17.0766C18.7457 17.3867 18.3729 17.5417 17.9375 17.5417H9.22919ZM13.9792 8.83342H17.9375L13.9792 4.87508V8.83342Z"/></svg>