<svg width="24" height="24" viewBox="0 0 24 24" xmlns="http://www.w3.org/2000/svg"><path d="M3.79675 21.2031V16.9231L17.3065 3.43838C17.5145 3.23055 17.7485 3.07163 18.0085 2.96163C18.2683 2.85163 18.5273 2.79663 18.7853 2.79663C19.0599 2.79663 19.3241 2.85163 19.5778 2.96163C19.8314 3.07163 20.0578 3.23055 20.257 3.43838L21.5733 4.74288C21.7813 4.93805 21.9383 5.16147 22.0443 5.41313C22.1503 5.6648 22.2033 5.92796 22.2033 6.20263C22.2033 6.46063 22.1513 6.71955 22.0473 6.97938C21.9433 7.23938 21.7853 7.47538 21.5733 7.68738L8.0825 21.2031H3.79675ZM18.5603 7.76888L20.1018 6.22763L18.7723 4.89813L17.237 6.43963L18.5603 7.76888ZM13.8805 21.2031C15.1257 21.2031 16.2783 20.8908 17.3383 20.2661C18.3983 19.6415 18.9283 18.7712 18.9283 17.6554C18.9283 17.0474 18.7699 16.5237 18.4533 16.0844C18.1366 15.645 17.7076 15.265 17.1663 14.9444L15.6255 16.4911C16.0088 16.6538 16.3068 16.8331 16.5195 17.0291C16.7322 17.2251 16.8385 17.4339 16.8385 17.6554C16.8385 18.0267 16.5383 18.3625 15.938 18.6629C15.3377 18.9632 14.6518 19.1134 13.8805 19.1134C13.5852 19.1134 13.3377 19.2132 13.138 19.4129C12.9383 19.6125 12.8385 19.86 12.8385 20.1554C12.8385 20.4505 12.9383 20.699 13.138 20.9006C13.3377 21.1023 13.5852 21.2031 13.8805 21.2031ZM4.581 13.3081L6.17675 11.7124C5.76359 11.579 5.44525 11.4405 5.22175 11.2969C4.99825 11.1532 4.8865 11.0024 4.8865 10.8444C4.8865 10.6564 5.0315 10.4624 5.3215 10.2624C5.6115 10.0624 6.24184 9.76205 7.2125 9.36138C8.69117 8.74788 9.67317 8.1798 10.1585 7.65713C10.6438 7.13446 10.8865 6.53022 10.8865 5.84438C10.8865 4.91188 10.5168 4.1708 9.7775 3.62113C9.03817 3.07146 8.0605 2.79663 6.8445 2.79663C6.0905 2.79663 5.41375 2.93096 4.81425 3.19963C4.21459 3.4683 3.75442 3.7983 3.43375 4.18963C3.24642 4.41813 3.16842 4.67072 3.19975 4.94738C3.23109 5.22405 3.36109 5.45171 3.58975 5.63038C3.81442 5.81771 4.065 5.89571 4.3415 5.86438C4.61817 5.83305 4.85417 5.71971 5.0495 5.52438C5.27484 5.29905 5.52817 5.13638 5.8095 5.03638C6.09084 4.93638 6.43584 4.88638 6.8445 4.88638C7.512 4.88638 8.00425 4.98238 8.32125 5.17438C8.63825 5.36638 8.79675 5.58972 8.79675 5.84438C8.79675 6.07772 8.65192 6.29022 8.36225 6.48188C8.07259 6.67355 7.41075 6.99713 6.37675 7.45263C5.01942 8.02396 4.08342 8.55513 3.56875 9.04613C3.05409 9.53696 2.79675 10.1364 2.79675 10.8444C2.79675 11.4215 2.95234 11.9036 3.2635 12.2906C3.57484 12.6776 4.014 13.0168 4.581 13.3081Z"/></svg>