<svg width="24" height="24" viewBox="0 0 24 24" xmlns="http://www.w3.org/2000/svg"><path d="M14.7265 15.8073C15.0249 16.1057 15.5086 16.1057 15.807 15.8073V15.8073C16.1054 15.5089 16.1054 15.0252 15.807 14.7268L13.7877 12.7075C13.3971 12.317 13.3971 11.6838 13.7877 11.2933L15.807 9.27398C16.1054 8.97561 16.1054 8.49187 15.807 8.1935V8.1935C15.5086 7.89514 15.0249 7.89514 14.7265 8.1935L12.7072 10.2128C12.3167 10.6033 11.6835 10.6033 11.293 10.2128L9.27365 8.1935C8.97529 7.89514 8.49154 7.89513 8.19317 8.1935V8.1935C7.89481 8.49187 7.89481 8.97562 8.19317 9.27398L10.2125 11.2933C10.603 11.6838 10.603 12.317 10.2125 12.7075L8.19317 14.7268C7.89481 15.0252 7.89481 15.5089 8.19317 15.8073V15.8073C8.49154 16.1057 8.97529 16.1057 9.27365 15.8073L11.293 13.788C11.6835 13.3975 12.3167 13.3975 12.7072 13.788L14.7265 15.8073Z"/></svg>