<svg width="24" height="24" viewBox="0 0 24 24" xmlns="http://www.w3.org/2000/svg"><path d="M10.951 14.0489C10.951 13.4966 10.5033 13.0489 9.95105 13.0489H7.07794C6.52566 13.0489 6.07794 12.6012 6.07794 12.0489V11.951C6.07794 11.3987 6.52566 10.951 7.07794 10.951H9.95105C10.5033 10.951 10.951 10.5033 10.951 9.95098V7.07788C10.951 6.5256 11.3988 6.07788 11.951 6.07788H12.049C12.6012 6.07788 13.049 6.5256 13.049 7.07788V9.95099C13.049 10.5033 13.4967 10.951 14.049 10.951H16.9221C17.4744 10.951 17.9221 11.3987 17.9221 11.951V12.0489C17.9221 12.6012 17.4744 13.0489 16.9221 13.0489H14.049C13.4967 13.0489 13.049 13.4966 13.049 14.0489V16.922C13.049 17.4743 12.6012 17.922 12.049 17.922H11.951C11.3988 17.922 10.951 17.4743 10.951 16.922V14.0489Z"/></svg>