<svg width="24" height="24" viewBox="0 0 24 24" xmlns="http://www.w3.org/2000/svg"><path d="M6.53752 15.2063C6.24724 14.7049 6.02953 14.1904 5.8844 13.6626C5.73926 13.1348 5.66669 12.5938 5.66669 12.0397C5.66669 10.2716 6.28023 8.76744 7.50731 7.52716C8.7344 6.28689 10.232 5.66675 12 5.66675H12.1386L10.8719 4.40008L11.9802 3.29175L15.1469 6.45842L11.9802 9.62508L10.8719 8.51675L12.1386 7.25008H12C10.6806 7.25008 9.55905 7.71519 8.63544 8.64539C7.71183 9.5756 7.25002 10.707 7.25002 12.0397C7.25002 12.3827 7.2896 12.7192 7.36877 13.049C7.44794 13.3789 7.56669 13.7022 7.72502 14.0188L6.53752 15.2063ZM12.0198 20.7084L8.85315 17.5417L12.0198 14.3751L13.1281 15.4834L11.8615 16.7501H12C13.3195 16.7501 14.441 16.285 15.3646 15.3548C16.2882 14.4246 16.75 13.2931 16.75 11.9605C16.75 11.6174 16.7104 11.281 16.6313 10.9511C16.5521 10.6213 16.4334 10.298 16.275 9.98133L17.4625 8.79383C17.7528 9.29522 17.9705 9.8098 18.1156 10.3376C18.2608 10.8654 18.3334 11.4063 18.3334 11.9605C18.3334 13.7286 17.7198 15.2327 16.4927 16.473C15.2656 17.7133 13.7681 18.3334 12 18.3334H11.8615L13.1281 19.6001L12.0198 20.7084Z"/></svg>