<svg width="20" height="21" viewBox="0 0 20 21" fill="none" xmlns="http://www.w3.org/2000/svg">
<g clip-path="url(#clip0_238_264)">
<path fill-rule="evenodd" clip-rule="evenodd" d="M1.40714 1.90714C-1.70299e-07 3.31429 0 5.57143 0 10.1V10.9C0 15.4286 -1.70299e-07 17.6857 1.40714 19.0929C2.81429 20.5 5.07143 20.5 9.6 20.5H10.4C14.9286 20.5 17.1857 20.5 18.5929 19.0929C20 17.6857 20 15.4286 20 10.9V10.1C20 5.57143 20 3.31429 18.5929 1.90714C17.1857 0.5 14.9286 0.5 10.4 0.5H9.6C5.07143 0.5 2.81429 0.5 1.40714 1.90714ZM3.32143 6.75C3.43571 11.95 6.17143 15.0857 10.6786 15.0857H10.9429V12.1071C12.5857 12.2714 13.8143 13.5 14.3143 15.0857H16.6857C16.4512 14.1934 16.0318 13.3604 15.4547 12.6405C14.8776 11.9207 14.1556 11.3301 13.3357 10.9071C14.0694 10.4454 14.7007 9.8384 15.1908 9.12345C15.681 8.4085 16.0196 7.60076 16.1857 6.75H14.0286C13.5714 8.40714 12.2286 9.90714 10.9429 10.05V6.75H8.75V12.5214C7.42143 12.1929 5.67857 10.5714 5.60714 6.75H3.32143Z" fill="#0077FF"/>
</g>
<defs>
<clipPath id="clip0_238_264">
<rect y="0.5" width="20" height="20" rx="10" fill="white"/>
</clipPath>
</defs>
</svg>
