<svg width="20" height="21" viewBox="0 0 20 21" fill="none" xmlns="http://www.w3.org/2000/svg">
<path d="M10 20.5C15.5231 20.5 20 16.0231 20 10.5C20 4.97692 15.5231 0.5 10 0.5C4.47692 0.5 0 4.97692 0 10.5C0 16.0231 4.47692 20.5 10 20.5Z" fill="#FC3F1D"/>
<path d="M13.1924 16.1H11.2078V6.28308H10.3239C8.70775 6.28308 7.85776 7.1 7.85776 8.30846C7.85776 9.68308 8.44929 10.3162 9.65776 11.1331L10.6578 11.8L7.78237 16.1H5.6416L8.22468 12.2615C6.73852 11.2046 5.90852 10.1631 5.90852 8.42538C5.90852 6.23308 7.42468 4.75 10.3162 4.75H13.1916L13.1924 16.1Z" fill="white"/>
</svg>
